<svg width="236" height="59" viewBox="0 0 236 59" fill="none" xmlns="http://www.w3.org/2000/svg">
<path d="M121.475 24.4355C124.276 36.2559 116.574 48.3352 104.076 51.2978C91.5781 54.2603 79.2735 46.9234 76.4716 35.1031C73.6697 23.2827 81.3718 11.2034 93.87 8.24088C106.368 5.2783 118.673 12.6152 121.475 24.4355Z" stroke="#37007E" stroke-width="3.75"/>
<mask id="path-2-inside-1_4_218" fill="white">
<path d="M116.851 46.2279C119.786 43.269 121.91 39.656 123.027 35.725L98.9731 29.7693L116.851 46.2279Z"/>
</mask>
<path d="M116.851 46.2279C119.786 43.269 121.91 39.656 123.027 35.725L98.9731 29.7693L116.851 46.2279Z" stroke="white" stroke-width="7.5" mask="url(#path-2-inside-1_4_218)"/>
<mask id="path-3-inside-2_4_218" fill="white">
<path d="M89.6435 52.2394C94.8297 54.1637 100.568 54.3401 105.938 52.7403L98.9731 29.7693L89.6435 52.2394Z"/>
</mask>
<path d="M89.6435 52.2394C94.8297 54.1637 100.568 54.3401 105.938 52.7403L98.9731 29.7693L89.6435 52.2394Z" stroke="white" stroke-width="7.5" mask="url(#path-3-inside-2_4_218)"/>
<mask id="path-4-inside-3_4_218" fill="white">
<path d="M74.1851 32.9248C74.7868 38.0151 77.0659 42.7563 80.689 46.4548L98.9731 29.7693L74.1851 32.9248Z"/>
</mask>
<path d="M74.1851 32.9248C74.7868 38.0151 77.0659 42.7563 80.689 46.4548L98.9731 29.7693L74.1851 32.9248Z" stroke="white" stroke-width="7.5" mask="url(#path-4-inside-3_4_218)"/>
<mask id="path-5-inside-4_4_218" fill="white">
<path d="M83.0111 11.5681C79.3201 14.5956 76.5945 18.5702 75.1615 23.0145L98.9731 29.7693L83.0111 11.5681Z"/>
</mask>
<path d="M83.0111 11.5681C79.3201 14.5956 76.5945 18.5702 75.1615 23.0145L98.9731 29.7693L83.0111 11.5681Z" stroke="white" stroke-width="7.5" mask="url(#path-5-inside-4_4_218)"/>
<mask id="path-6-inside-5_4_218" fill="white">
<path d="M108.688 7.44572C104.804 5.93139 100.567 5.39823 96.3727 5.89606L98.9731 29.7693L108.688 7.44572Z"/>
</mask>
<path d="M108.688 7.44572C104.804 5.93139 100.567 5.39823 96.3727 5.89606L98.9731 29.7693L108.688 7.44572Z" stroke="white" stroke-width="7.5" mask="url(#path-6-inside-5_4_218)"/>
<mask id="path-7-inside-6_4_218" fill="white">
<path d="M123.299 24.0031C122.277 19.692 120.032 15.7597 116.813 12.6418L98.9731 29.7693L123.299 24.0031Z"/>
</mask>
<path d="M123.299 24.0031C122.277 19.692 120.032 15.7597 116.813 12.6418L98.9731 29.7693L123.299 24.0031Z" stroke="white" stroke-width="7.5" mask="url(#path-7-inside-6_4_218)"/>
<path d="M2.11098 42V17.7118H11.8357C13.6226 17.7118 15.1129 17.9767 16.3068 18.5064C17.5006 19.0361 18.398 19.7714 18.9988 20.7123C19.5997 21.6452 19.9002 22.7205 19.9002 23.938C19.9002 24.8868 19.7104 25.7209 19.3309 26.4404C18.9514 27.152 18.4296 27.737 17.7655 28.1956C17.1092 28.6463 16.3581 28.9665 15.5122 29.1562V29.3934C16.4372 29.4329 17.3029 29.6938 18.1094 30.1761C18.9237 30.6584 19.5839 31.3344 20.0899 32.2041C20.5959 33.0659 20.8489 34.0937 20.8489 35.2875C20.8489 36.5763 20.5287 37.7266 19.8883 38.7386C19.2558 39.7428 18.3189 40.5373 17.0776 41.1224C15.8363 41.7075 14.3065 42 12.488 42H2.11098ZM7.24613 37.8018H11.4325C12.8636 37.8018 13.9072 37.529 14.5634 36.9834C15.2196 36.43 15.5477 35.6947 15.5477 34.7776C15.5477 34.1056 15.3857 33.5126 15.0615 32.9987C14.7374 32.4848 14.2748 32.0815 13.674 31.789C13.081 31.4965 12.3734 31.3502 11.5511 31.3502H7.24613V37.8018ZM7.24613 27.8754H11.053C11.7567 27.8754 12.3813 27.7528 12.9268 27.5077C13.4802 27.2547 13.9151 26.899 14.2313 26.4404C14.5555 25.9818 14.7176 25.4323 14.7176 24.7919C14.7176 23.9143 14.4053 23.2067 13.7807 22.6691C13.164 22.1315 12.2864 21.8626 11.1479 21.8626H7.24613V27.8754ZM32.3971 42.3558C30.5233 42.3558 28.9104 41.9763 27.5584 41.2173C26.2143 40.4504 25.1786 39.3672 24.4512 37.9678C23.7239 36.5605 23.3602 34.8962 23.3602 32.975C23.3602 31.1012 23.7239 29.4566 24.4512 28.0414C25.1786 26.6262 26.2025 25.5233 27.5228 24.7326C28.8511 23.942 30.4086 23.5467 32.1955 23.5467C33.3972 23.5467 34.516 23.7404 35.5517 24.1278C36.5953 24.5073 37.5045 25.0805 38.2794 25.8474C39.0621 26.6143 39.6709 27.5789 40.1057 28.7411C40.5406 29.8954 40.758 31.2474 40.758 32.7971V34.1846H25.3763V31.0537H36.0023C36.0023 30.3263 35.8442 29.682 35.528 29.1206C35.2117 28.5593 34.7729 28.1205 34.2116 27.8042C33.6581 27.4801 33.0138 27.318 32.2785 27.318C31.5116 27.318 30.8316 27.4959 30.2386 27.8517C29.6536 28.1995 29.195 28.67 28.863 29.2629C28.5309 29.848 28.3609 30.5003 28.353 31.2198V34.1965C28.353 35.0978 28.519 35.8766 28.8511 36.5328C29.1911 37.189 29.6694 37.695 30.2861 38.0508C30.9028 38.4066 31.6341 38.5845 32.4801 38.5845C33.0414 38.5845 33.5553 38.5054 34.0218 38.3473C34.4883 38.1892 34.8876 37.952 35.2196 37.6357C35.5517 37.3195 35.8047 36.9321 35.9786 36.4735L40.6513 36.7818C40.4141 37.9045 39.9278 38.8849 39.1925 39.723C38.4652 40.5531 37.5243 41.2015 36.37 41.6679C35.2236 42.1265 33.8993 42.3558 32.3971 42.3558ZM59.2113 28.9783L54.5861 29.2629C54.507 28.8676 54.3371 28.5118 54.0762 28.1956C53.8152 27.8714 53.4713 27.6145 53.0444 27.4247C52.6253 27.2271 52.1233 27.1282 51.5382 27.1282C50.7555 27.1282 50.0953 27.2943 49.5577 27.6263C49.0201 27.9505 48.7513 28.3853 48.7513 28.9309C48.7513 29.3657 48.9252 29.7334 49.2731 30.0338C49.621 30.3342 50.2179 30.5754 51.0639 30.7572L54.3608 31.4214C56.1318 31.7851 57.4521 32.3701 58.3218 33.1766C59.1915 33.983 59.6264 35.0425 59.6264 36.3549C59.6264 37.5488 59.2746 38.5963 58.5709 39.4977C57.8751 40.399 56.9185 41.1026 55.7009 41.6086C54.4912 42.1067 53.0958 42.3558 51.5145 42.3558C49.1031 42.3558 47.1819 41.8537 45.7508 40.8496C44.3277 39.8376 43.4936 38.4619 43.2485 36.7225L48.2176 36.4616C48.3678 37.1969 48.7315 37.7583 49.3087 38.1457C49.8858 38.5252 50.6251 38.7149 51.5264 38.7149C52.4119 38.7149 53.1234 38.5449 53.6611 38.205C54.2066 37.8571 54.4833 37.4104 54.4912 36.8649C54.4833 36.4063 54.2896 36.0307 53.9101 35.7382C53.5306 35.4378 52.9456 35.2085 52.1549 35.0504L49.0003 34.4218C47.2214 34.066 45.8971 33.4493 45.0274 32.5717C44.1656 31.6941 43.7347 30.5754 43.7347 29.2155C43.7347 28.0454 44.051 27.0373 44.6835 26.1913C45.3239 25.3454 46.2212 24.6931 47.3756 24.2345C48.5378 23.776 49.8977 23.5467 51.4552 23.5467C53.756 23.5467 55.5665 24.0329 56.8868 25.0054C58.2151 25.9779 58.9899 27.3022 59.2113 28.9783ZM72.4969 23.7839V27.5789H61.5269V23.7839H72.4969ZM64.0173 19.4196H69.0695V36.4023C69.0695 36.8688 69.1406 37.2325 69.2829 37.4934C69.4253 37.7464 69.6229 37.9243 69.8759 38.0271C70.1368 38.1299 70.4373 38.1813 70.7772 38.1813C71.0144 38.1813 71.2516 38.1615 71.4888 38.122C71.726 38.0745 71.9078 38.0389 72.0343 38.0152L72.8289 41.7747C72.5759 41.8537 72.2201 41.9447 71.7616 42.0474C71.303 42.1581 70.7456 42.2253 70.0894 42.249C68.8718 42.2965 67.8045 42.1344 66.8873 41.7628C65.9781 41.3912 65.2705 40.8141 64.7645 40.0313C64.2585 39.2486 64.0094 38.2603 64.0173 37.0665V19.4196ZM87.7985 42H82.2957L90.6804 17.7118H97.2979L105.671 42H100.168L94.084 23.2621H93.8943L87.7985 42ZM87.4546 32.4531H100.453V36.4616H87.4546V32.4531ZM113.729 17.7118V42H108.594V17.7118H113.729ZM138.859 24.6971C138.765 23.7404 138.357 22.9972 137.638 22.4675C136.918 21.9378 135.942 21.6729 134.709 21.6729C133.871 21.6729 133.163 21.7915 132.586 22.0287C132.009 22.258 131.566 22.5782 131.257 22.9893C130.957 23.4004 130.807 23.8669 130.807 24.3887C130.791 24.8236 130.882 25.2031 131.08 25.5272C131.285 25.8514 131.566 26.132 131.922 26.3692C132.277 26.5985 132.689 26.8001 133.155 26.9741C133.621 27.1401 134.12 27.2824 134.649 27.401L136.831 27.9228C137.891 28.16 138.863 28.4763 139.749 28.8716C140.634 29.2669 141.401 29.7531 142.05 30.3303C142.698 30.9075 143.2 31.5874 143.556 32.3701C143.919 33.1528 144.105 34.0502 144.113 35.0622C144.105 36.5486 143.726 37.8373 142.975 38.9284C142.231 40.0116 141.156 40.8536 139.749 41.4545C138.349 42.0474 136.661 42.3439 134.685 42.3439C132.724 42.3439 131.016 42.0435 129.562 41.4426C128.115 40.8417 126.984 39.9523 126.17 38.7742C125.363 37.5883 124.94 36.1217 124.901 34.3744H129.87C129.925 35.1887 130.159 35.8687 130.57 36.4142C130.989 36.9518 131.546 37.359 132.242 37.6357C132.945 37.9045 133.74 38.0389 134.626 38.0389C135.495 38.0389 136.25 37.9124 136.891 37.6594C137.539 37.4064 138.041 37.0546 138.397 36.6039C138.753 36.1533 138.931 35.6354 138.931 35.0504C138.931 34.5048 138.768 34.0463 138.444 33.6747C138.128 33.3031 137.662 32.9868 137.045 32.7259C136.436 32.465 135.689 32.2278 134.803 32.0143L132.159 31.3502C130.111 30.8521 128.494 30.0733 127.308 29.0139C126.122 27.9544 125.533 26.5274 125.541 24.7326C125.533 23.2621 125.925 21.9773 126.715 20.8783C127.514 19.7793 128.609 18.9215 130 18.3048C131.392 17.6881 132.973 17.3798 134.744 17.3798C136.547 17.3798 138.12 17.6881 139.464 18.3048C140.816 18.9215 141.868 19.7793 142.619 20.8783C143.37 21.9773 143.757 23.2502 143.781 24.6971H138.859ZM155.703 42.3558C153.837 42.3558 152.232 41.9605 150.888 41.1698C149.552 40.3713 148.524 39.2644 147.804 37.8492C147.093 36.434 146.737 34.8053 146.737 32.9631C146.737 31.0972 147.097 29.4606 147.816 28.0533C148.544 26.6381 149.575 25.5351 150.912 24.7445C152.248 23.946 153.837 23.5467 155.679 23.5467C157.268 23.5467 158.66 23.8353 159.854 24.4124C161.047 24.9896 161.992 25.8 162.688 26.8436C163.384 27.8872 163.767 29.1127 163.838 30.52H159.071C158.936 29.6108 158.581 28.8795 158.004 28.326C157.434 27.7647 156.687 27.484 155.762 27.484C154.979 27.484 154.295 27.6975 153.71 28.1244C153.133 28.5435 152.683 29.1562 152.358 29.9627C152.034 30.7691 151.872 31.7455 151.872 32.8919C151.872 34.0542 152.03 35.0425 152.347 35.8568C152.671 36.6712 153.125 37.2918 153.71 37.7187C154.295 38.1457 154.979 38.3591 155.762 38.3591C156.339 38.3591 156.857 38.2406 157.316 38.0034C157.782 37.7662 158.166 37.4222 158.466 36.9716C158.774 36.513 158.976 35.9635 159.071 35.3231H163.838C163.759 36.7146 163.38 37.9401 162.7 38.9996C162.028 40.0511 161.099 40.8734 159.913 41.4663C158.727 42.0593 157.324 42.3558 155.703 42.3558ZM172.125 31.4688V42H167.073V17.7118H171.983V26.9978H172.196C172.607 25.9225 173.272 25.0805 174.189 24.4717C175.106 23.855 176.256 23.5467 177.64 23.5467C178.905 23.5467 180.008 23.8234 180.949 24.3768C181.897 24.9224 182.633 25.7091 183.154 26.7369C183.684 27.7568 183.945 28.9783 183.937 30.4015V42H178.885V31.3028C178.893 30.1801 178.608 29.3064 178.031 28.6818C177.462 28.0572 176.663 27.7449 175.636 27.7449C174.948 27.7449 174.339 27.8912 173.809 28.1837C173.287 28.4763 172.876 28.9032 172.576 29.4646C172.283 30.018 172.133 30.6861 172.125 31.4688ZM196.144 42.3558C194.301 42.3558 192.708 41.9644 191.364 41.1817C190.028 40.3911 188.996 39.2921 188.269 37.8848C187.541 36.4695 187.178 34.829 187.178 32.9631C187.178 31.0814 187.541 29.4369 188.269 28.0296C188.996 26.6143 190.028 25.5154 191.364 24.7326C192.708 23.942 194.301 23.5467 196.144 23.5467C197.986 23.5467 199.575 23.942 200.911 24.7326C202.255 25.5154 203.291 26.6143 204.018 28.0296C204.746 29.4369 205.109 31.0814 205.109 32.9631C205.109 34.829 204.746 36.4695 204.018 37.8848C203.291 39.2921 202.255 40.3911 200.911 41.1817C199.575 41.9644 197.986 42.3558 196.144 42.3558ZM196.167 38.4422C197.005 38.4422 197.705 38.205 198.266 37.7306C198.828 37.2483 199.251 36.5921 199.535 35.7619C199.828 34.9318 199.974 33.987 199.974 32.9275C199.974 31.8681 199.828 30.9233 199.535 30.0931C199.251 29.2629 198.828 28.6067 198.266 28.1244C197.705 27.6422 197.005 27.401 196.167 27.401C195.321 27.401 194.61 27.6422 194.033 28.1244C193.463 28.6067 193.032 29.2629 192.74 30.0931C192.455 30.9233 192.313 31.8681 192.313 32.9275C192.313 33.987 192.455 34.9318 192.74 35.7619C193.032 36.5921 193.463 37.2483 194.033 37.7306C194.61 38.205 195.321 38.4422 196.167 38.4422ZM216.625 42.3558C214.783 42.3558 213.19 41.9644 211.845 41.1817C210.509 40.3911 209.478 39.2921 208.75 37.8848C208.023 36.4695 207.659 34.829 207.659 32.9631C207.659 31.0814 208.023 29.4369 208.75 28.0296C209.478 26.6143 210.509 25.5154 211.845 24.7326C213.19 23.942 214.783 23.5467 216.625 23.5467C218.467 23.5467 220.056 23.942 221.392 24.7326C222.736 25.5154 223.772 26.6143 224.499 28.0296C225.227 29.4369 225.591 31.0814 225.591 32.9631C225.591 34.829 225.227 36.4695 224.499 37.8848C223.772 39.2921 222.736 40.3911 221.392 41.1817C220.056 41.9644 218.467 42.3558 216.625 42.3558ZM216.649 38.4422C217.487 38.4422 218.186 38.205 218.748 37.7306C219.309 37.2483 219.732 36.5921 220.017 35.7619C220.309 34.9318 220.455 33.987 220.455 32.9275C220.455 31.8681 220.309 30.9233 220.017 30.0931C219.732 29.2629 219.309 28.6067 218.748 28.1244C218.186 27.6422 217.487 27.401 216.649 27.401C215.803 27.401 215.091 27.6422 214.514 28.1244C213.945 28.6067 213.514 29.2629 213.221 30.0931C212.937 30.9233 212.794 31.8681 212.794 32.9275C212.794 33.987 212.937 34.9318 213.221 35.7619C213.514 36.5921 213.945 37.2483 214.514 37.7306C215.091 38.205 215.803 38.4422 216.649 38.4422ZM233.928 17.7118V42H228.876V17.7118H233.928Z" fill="#37007E"/>
</svg>
